<svg width="22" height="22" viewBox="0 0 22 22" fill="none" xmlns="http://www.w3.org/2000/svg">
<path fill-rule="evenodd" clip-rule="evenodd" d="M10.75 0C4.81294 0 0 4.81294 0 10.75C0 16.6871 4.81294 21.5 10.75 21.5C16.6871 21.5 21.5 16.6871 21.5 10.75C21.5 4.81294 16.6871 0 10.75 0ZM12.3442 15.7467C13.8922 15.6128 15.4007 8.01482 14.4578 7.08055C13.2536 5.88731 5.24595 8.20337 5.77507 9.6033C5.97489 10.132 6.98414 10.4659 9.0026 11.1336C9.7971 11.3965 10.0976 11.6849 10.3675 12.4861C10.4146 12.626 10.4657 12.8178 10.5245 13.0389C10.807 14.1011 11.2694 15.8396 12.3442 15.7467Z" fill="white"/>
</svg>
