<svg width="30" height="30" viewBox="0 0 30 30" fill="none" xmlns="http://www.w3.org/2000/svg">
<g clip-path="url(#clip0_348_74)">
<path d="M8.86132 23.0411C8.41691 23.0396 7.9912 22.8621 7.67725 22.5475C7.36331 22.233 7.18665 21.807 7.18591 21.3625V18.0127C7.18586 17.7184 7.26328 17.4294 7.41037 17.1746C7.55746 16.9197 7.76904 16.7081 8.02385 16.561C8.27866 16.4139 8.5677 16.3364 8.86194 16.3364C9.15617 16.3364 9.44521 16.4139 9.70001 16.561L12.6013 18.2361C12.8559 18.3832 13.0674 18.5948 13.2144 18.8495C13.3615 19.1042 13.4389 19.3931 13.439 19.6871C13.4391 19.9812 13.3619 20.2702 13.215 20.525C13.0681 20.7798 12.8568 20.9915 12.6022 21.1388L9.70001 22.8142C9.4453 22.9623 9.15599 23.0406 8.86132 23.0411ZM9.06091 18.3574V21.0178L11.3653 19.6876L9.06091 18.3574Z" fill="#ED5A2F"/>
<path d="M5.625 13.125C4.6979 13.125 3.79162 12.8501 3.02077 12.335C2.24991 11.8199 1.6491 11.0879 1.29432 10.2313C0.939531 9.3748 0.846703 8.4323 1.02757 7.52302C1.20844 6.61373 1.65488 5.7785 2.31044 5.12294C2.966 4.46738 3.80123 4.02094 4.71052 3.84007C5.6198 3.6592 6.5623 3.75203 7.41883 4.10682C8.27536 4.4616 9.00745 5.06241 9.52252 5.83327C10.0376 6.60412 10.3125 7.5104 10.3125 8.4375C10.311 9.68025 9.81671 10.8717 8.93795 11.7504C8.05919 12.6292 6.86775 13.1235 5.625 13.125ZM5.625 5.625C5.06874 5.625 4.52497 5.78995 4.06246 6.09899C3.59995 6.40804 3.23946 6.84729 3.02659 7.3612C2.81372 7.87512 2.75802 8.44062 2.86654 8.98619C2.97506 9.53177 3.24293 10.0329 3.63626 10.4262C4.0296 10.8196 4.53074 11.0874 5.07631 11.196C5.62188 11.3045 6.18738 11.2488 6.7013 11.0359C7.21522 10.823 7.65447 10.4626 7.96351 10C8.27255 9.53753 8.4375 8.99376 8.4375 8.4375C8.43668 7.69183 8.1401 6.97694 7.61284 6.44967C7.08557 5.9224 6.37067 5.62582 5.625 5.625Z" fill="#ED5A2F"/>
<path d="M14.0625 13.125C12.95 13.125 11.8624 12.7951 10.9374 12.177C10.0124 11.5589 9.29142 10.6804 8.86568 9.6526C8.43994 8.62476 8.32854 7.49376 8.54559 6.40262C8.76263 5.31148 9.29836 4.3092 10.085 3.52253C10.8717 2.73586 11.874 2.20013 12.9651 1.98309C14.0563 1.76604 15.1873 1.87744 16.2151 2.30318C17.2429 2.72892 18.1214 3.44989 18.7395 4.37492C19.3576 5.29995 19.6875 6.38748 19.6875 7.5C19.6859 8.99134 19.0927 10.4211 18.0382 11.4757C16.9836 12.5302 15.5538 13.1234 14.0625 13.125ZM14.0625 3.75C13.3208 3.75 12.5958 3.96994 11.9791 4.38199C11.3624 4.79405 10.8818 5.37972 10.598 6.06494C10.3141 6.75016 10.2399 7.50416 10.3846 8.23159C10.5293 8.95902 10.8864 9.62721 11.4109 10.1517C11.9353 10.6761 12.6035 11.0333 13.3309 11.1779C14.0583 11.3226 14.8123 11.2484 15.4976 10.9646C16.1828 10.6807 16.7685 10.2001 17.1805 9.58339C17.5926 8.96671 17.8125 8.24168 17.8125 7.5C17.8115 6.50576 17.416 5.55254 16.713 4.8495C16.01 4.14647 15.0567 3.75104 14.0625 3.75Z" fill="#ED5A2F"/>
<path d="M17.8125 28.125H2.8125C2.06683 28.1242 1.35194 27.8276 0.824667 27.3003C0.297398 26.7731 0.000818887 26.0582 0 25.3125L0 14.0625C0.000818887 13.3168 0.297398 12.6019 0.824667 12.0747C1.35194 11.5474 2.06683 11.2508 2.8125 11.25H17.8125C18.5582 11.2508 19.2731 11.5474 19.8003 12.0747C20.3276 12.6019 20.6242 13.3168 20.625 14.0625V25.3125C20.6242 26.0582 20.3276 26.7731 19.8003 27.3003C19.2731 27.8276 18.5582 28.1242 17.8125 28.125ZM2.8125 13.125C2.56393 13.1252 2.3256 13.2241 2.14983 13.3998C1.97407 13.5756 1.87522 13.8139 1.875 14.0625V25.3125C1.87522 25.5611 1.97407 25.7994 2.14983 25.9752C2.3256 26.1509 2.56393 26.2498 2.8125 26.25H17.8125C18.0611 26.2498 18.2994 26.1509 18.4752 25.9752C18.6509 25.7994 18.7498 25.5611 18.75 25.3125V14.0625C18.7498 13.8139 18.6509 13.5756 18.4752 13.3998C18.2994 13.2241 18.0611 13.1252 17.8125 13.125H2.8125Z" fill="#ED5A2F"/>
<path d="M21.5625 24.375H19.6875C19.4389 24.375 19.2004 24.2762 19.0246 24.1004C18.8488 23.9246 18.75 23.6861 18.75 23.4375V15.9375C18.75 15.6889 18.8488 15.4504 19.0246 15.2746C19.2004 15.0988 19.4389 15 19.6875 15H21.5625C22.3082 15.0008 23.0231 15.2974 23.5503 15.8247C24.0776 16.3519 24.3742 17.0668 24.375 17.8125V21.5625C24.3742 22.3082 24.0776 23.0231 23.5503 23.5503C23.0231 24.0776 22.3082 24.3742 21.5625 24.375ZM20.625 22.5H21.5625C21.8111 22.4998 22.0494 22.4009 22.2252 22.2252C22.4009 22.0494 22.4998 21.8111 22.5 21.5625V17.8125C22.4998 17.5639 22.4009 17.3256 22.2252 17.1498C22.0494 16.9741 21.8111 16.8752 21.5625 16.875H20.625V22.5Z" fill="#ED5A2F"/>
<path d="M28.1259 25.6721C27.8344 25.6716 27.547 25.6033 27.2864 25.4725L23.0182 23.3384C22.8624 23.2605 22.7315 23.1408 22.64 22.9927C22.5484 22.8446 22.5 22.6739 22.5 22.4998V16.8748C22.5 16.7007 22.5484 16.53 22.64 16.3819C22.7315 16.2338 22.8624 16.1141 23.0182 16.0362L27.2864 13.9021C27.5723 13.7591 27.89 13.6916 28.2093 13.706C28.5286 13.7204 28.8389 13.8161 29.1108 13.9842C29.3827 14.1522 29.6071 14.387 29.7628 14.6662C29.9184 14.9454 30 15.2597 30 15.5794V23.7952C29.9997 24.2924 29.8023 24.7692 29.4509 25.1211C29.0996 25.4729 28.6231 25.6711 28.1259 25.6721ZM24.375 21.9202L28.1287 23.7971L28.125 15.5794L24.375 17.4544V21.9202Z" fill="#ED5A2F"/>
</g>
<defs>
<clipPath id="clip0_348_74">
<rect width="30" height="30" fill="white"/>
</clipPath>
</defs>
</svg>
