<svg width="30" height="30" viewBox="0 0 30 30" fill="none" xmlns="http://www.w3.org/2000/svg">
<g clip-path="url(#clip0_348_70)">
<path fill-rule="evenodd" clip-rule="evenodd" d="M29.0625 8.89992V9.85261C29.0627 9.86297 29.0627 9.87328 29.0625 9.88355V19.2292C29.0625 19.2782 29.0588 19.3264 29.0515 19.3734C29.0588 19.4804 29.0625 19.5884 29.0625 19.6973C29.0625 22.2845 26.9626 24.3796 24.375 24.3796C21.7874 24.3796 19.6875 22.2845 19.6875 19.6973C19.6875 17.11 21.7874 15.0149 24.375 15.0149C25.43 15.0149 26.4039 15.3631 27.1875 15.951V10.9553L10.3125 13.4831V22.974C10.3125 25.5613 8.21264 27.6564 5.625 27.6564C3.03737 27.6564 0.9375 25.5613 0.9375 22.974C0.9375 20.3868 3.03737 18.2917 5.625 18.2917C6.68002 18.2917 7.65394 18.6399 8.4375 19.2278V12.6899C8.43731 12.6795 8.43731 12.6692 8.4375 12.659V10.0234C8.4375 6.77775 10.8151 4.02212 14.0267 3.54104L21.5267 2.41757C25.4929 1.82345 29.0625 4.89108 29.0625 8.89992ZM21.8045 4.27188C24.6401 3.84712 27.1875 6.04022 27.1875 8.89992V9.05939L10.3125 11.5872V10.0234C10.3125 7.70789 12.009 5.73919 14.3045 5.39536L21.8045 4.27188Z" fill="#ED5A2F"/>
</g>
<defs>
<clipPath id="clip0_348_70">
<rect width="30" height="30" fill="white"/>
</clipPath>
</defs>
</svg>
