<svg width="40" height="40" viewBox="0 0 40 40" fill="none" xmlns="http://www.w3.org/2000/svg">
<path d="M22.501 12.4999V6.24992C22.5003 5.99789 22.4235 5.75195 22.2806 5.54436C22.1377 5.33677 21.9353 5.17723 21.7001 5.08667C21.4649 4.9961 21.2079 4.97875 20.9626 5.03688C20.7174 5.09501 20.4955 5.22592 20.326 5.41242L9.07595 17.9124C8.86865 18.1421 8.75391 18.4405 8.75391 18.7499C8.75391 19.0593 8.86865 19.3577 9.07595 19.5874L20.326 32.0874C20.4955 32.2739 20.7174 32.4048 20.9626 32.463C21.2079 32.5211 21.4649 32.5037 21.7001 32.4132C21.9353 32.3226 22.1377 32.1631 22.2806 31.9555C22.4235 31.7479 22.5003 31.5019 22.501 31.2499V24.9999C29.826 25.2499 31.351 27.8499 34.251 32.7874C34.5385 33.2999 34.851 33.8249 35.176 34.3624C35.2834 34.5537 35.4394 34.7133 35.6281 34.8252C35.8168 34.9371 36.0316 34.9973 36.251 34.9999C36.3627 35.0181 36.4767 35.0181 36.5885 34.9999C36.8588 34.9243 37.0959 34.7599 37.2614 34.5331C37.427 34.3064 37.5113 34.0305 37.501 33.7499C37.501 26.5124 37.501 13.2249 22.501 12.4999ZM21.251 22.4999C20.9194 22.4999 20.6015 22.6316 20.3671 22.866C20.1326 23.1005 20.001 23.4184 20.001 23.7499V27.9874L11.6885 18.7499L20.001 9.51242V13.7499C20.001 14.0814 20.1326 14.3994 20.3671 14.6338C20.6015 14.8682 20.9194 14.9999 21.251 14.9999C32.3135 14.9999 34.476 22.3124 34.901 29.0499C32.326 24.9999 29.501 22.4999 21.251 22.4999Z" fill="#ED5A2F"/>
<path d="M5.43845 18.7499L15.926 7.08739C16.0476 6.96807 16.1435 6.82515 16.2079 6.6674C16.2723 6.50965 16.3037 6.34041 16.3003 6.17006C16.2969 5.99971 16.2587 5.83186 16.1881 5.67682C16.1175 5.52177 16.0159 5.3828 15.8896 5.26845C15.7633 5.15409 15.6149 5.06676 15.4536 5.01183C15.2923 4.95689 15.1215 4.93551 14.9517 4.94899C14.7818 4.96247 14.6165 5.01053 14.4659 5.09022C14.3154 5.16991 14.1826 5.27954 14.076 5.41239L2.82595 17.9124C2.61865 18.1421 2.50391 18.4405 2.50391 18.7499C2.50391 19.0593 2.61865 19.3577 2.82595 19.5874L14.076 32.0874C14.1928 32.2169 14.3355 32.3205 14.4948 32.3915C14.6541 32.4626 14.8265 32.4995 15.001 32.4999C15.3107 32.4991 15.6092 32.3833 15.8385 32.1749C16.0833 31.9525 16.2299 31.6421 16.2463 31.3117C16.2627 30.9814 16.1475 30.658 15.926 30.4124L5.43845 18.7499Z" fill="#ED5A2F"/>
</svg>
