<svg width="10" height="13" viewBox="0 0 10 13" fill="none" xmlns="http://www.w3.org/2000/svg">
<path d="M8.98623 4.3411H8.594V3.59397C8.594 1.61227 6.98172 0 4.99998 0C3.01828 0 1.406 1.61227 1.406 3.59397V4.3411H1.01377C0.454764 4.3411 0 4.79587 0 5.35487V11.945C0 12.504 0.454764 12.9588 1.01377 12.9588H8.98623C9.54524 12.9588 10 12.504 10 11.945V5.35487C9.99995 4.79587 9.54519 4.3411 8.98623 4.3411ZM4.54338 8.92125C4.25097 8.75612 4.06929 8.44528 4.06929 8.11008C4.06929 7.59692 4.48677 7.17948 4.99993 7.17948C5.51309 7.17948 5.93052 7.59696 5.93052 8.11008C5.93052 8.44532 5.74885 8.75612 5.45644 8.92125C5.34571 8.98378 5.2772 9.10114 5.2772 9.22833V10.1204H4.72257V9.22833C4.72261 9.10114 4.65415 8.98378 4.54338 8.92125ZM3.33744 3.59402C3.33744 2.6773 4.08325 1.93153 4.99993 1.93153C5.91665 1.93153 6.66247 2.67734 6.66247 3.59402V4.34115H3.33744V3.59402Z" fill="#ED5A2F"/>
</svg>
