<svg width="32" height="32" viewBox="0 0 32 32" fill="none" xmlns="http://www.w3.org/2000/svg">
<path d="M27.0001 14C27.0001 13.7348 26.8947 13.4804 26.7072 13.2929C26.5197 13.1054 26.2653 13 26.0001 13C25.7349 13 25.4805 13.1054 25.293 13.2929C25.1054 13.4804 25.0001 13.7348 25.0001 14C25.0001 16.3869 24.0519 18.6761 22.3641 20.364C20.6762 22.0518 18.387 23 16.0001 23C13.6131 23 11.324 22.0518 9.63613 20.364C7.94831 18.6761 7.00009 16.3869 7.00009 14C7.00009 13.7348 6.89474 13.4804 6.7072 13.2929C6.51966 13.1054 6.26531 13 6.00009 13C5.73488 13 5.48052 13.1054 5.29299 13.2929C5.10545 13.4804 5.00009 13.7348 5.00009 14C4.9887 16.7521 6.00937 19.4085 7.86066 21.4449C9.71195 23.4814 12.2594 24.7498 15.0001 25V30C15.0001 30.2652 15.1055 30.5196 15.293 30.7071C15.4805 30.8946 15.7349 31 16.0001 31C16.2653 31 16.5197 30.8946 16.7072 30.7071C16.8947 30.5196 17.0001 30.2652 17.0001 30V25C19.7408 24.7498 22.2882 23.4814 24.1395 21.4449C25.9908 19.4085 27.0115 16.7521 27.0001 14Z" fill="#ED5A2F"/>
<path d="M16 19C17.5913 19 19.1174 18.3679 20.2426 17.2426C21.3679 16.1174 22 14.5913 22 13V7C22 5.4087 21.3679 3.88258 20.2426 2.75736C19.1174 1.63214 17.5913 1 16 1C14.4087 1 12.8826 1.63214 11.7574 2.75736C10.6321 3.88258 10 5.4087 10 7V13C10 14.5913 10.6321 16.1174 11.7574 17.2426C12.8826 18.3679 14.4087 19 16 19ZM12 7C12 5.93913 12.4214 4.92172 13.1716 4.17157C13.9217 3.42143 14.9391 3 16 3C17.0609 3 18.0783 3.42143 18.8284 4.17157C19.5786 4.92172 20 5.93913 20 7V13C20 14.0609 19.5786 15.0783 18.8284 15.8284C18.0783 16.5786 17.0609 17 16 17C14.9391 17 13.9217 16.5786 13.1716 15.8284C12.4214 15.0783 12 14.0609 12 13V7Z" fill="#ED5A2F"/>
</svg>
