<svg width="32" height="32" viewBox="0 0 32 32" fill="none" xmlns="http://www.w3.org/2000/svg">
<path d="M19 5C19 3.346 17.654 2 16 2C14.346 2 13 3.346 13 5C13 6.654 14.346 8 16 8C17.654 8 19 6.654 19 5ZM16 6C15.449 6 15 5.551 15 5C15 4.449 15.449 4 16 4C16.551 4 17 4.449 17 5C17 5.551 16.551 6 16 6ZM21 13.522V11C21 9.346 19.654 8 18 8H16H14C12.346 8 11 9.346 11 11V13.522C8.59 15.139 7 17.887 7 21C7 25.962 11.038 30 16 30C20.962 30 25 25.962 25 21C25 17.887 23.41 15.139 21 13.522ZM13 11C13 10.449 13.449 10 14 10H18C18.551 10 19 10.449 19 11V12.525C18.06 12.191 17.053 12 16 12C14.947 12 13.94 12.191 13 12.525V11ZM16 28C12.14 28 9 24.86 9 21C9 17.14 12.14 14 16 14C19.86 14 23 17.14 23 21C23 24.86 19.86 28 16 28Z" fill="#ED5A2F"/>
<path d="M18.293 17.2928L15.586 19.9998H13C12.448 19.9998 12 20.4478 12 20.9998C12 21.5518 12.448 21.9998 13 21.9998H16C16.265 21.9998 16.52 21.8948 16.707 21.7068L19.707 18.7068C20.098 18.3158 20.098 17.6838 19.707 17.2928C19.316 16.9018 18.684 16.9018 18.293 17.2928ZM5.555 17.1678C5.094 16.8598 4.474 16.9858 4.168 17.4448L2.168 20.4448C1.944 20.7808 1.944 21.2178 2.168 21.5538L4.168 24.5538C4.361 24.8438 4.678 24.9998 5.001 24.9998C5.191 24.9998 5.384 24.9458 5.555 24.8318C6.014 24.5258 6.138 23.9048 5.832 23.4448L4.202 20.9998L5.832 18.5548C6.138 18.0948 6.014 17.4738 5.555 17.1678ZM29.832 20.4448L27.832 17.4448C27.525 16.9858 26.904 16.8598 26.445 17.1678C25.986 17.4738 25.862 18.0948 26.168 18.5548L27.798 20.9998L26.168 23.4448C25.862 23.9038 25.986 24.5258 26.445 24.8318C26.616 24.9458 26.809 24.9998 26.999 24.9998C27.322 24.9998 27.639 24.8438 27.832 24.5548L29.832 21.5548C30.056 21.2188 30.056 20.7808 29.832 20.4448Z" fill="#ED5A2F"/>
</svg>
