<svg width="32" height="32" viewBox="0 0 32 32" fill="none" xmlns="http://www.w3.org/2000/svg">
<path d="M27.1331 27.6663H20.2138C18.3221 27.6816 16.4636 27.1694 14.8469 26.187C13.2302 25.2047 11.9193 23.7911 11.0614 22.1051C11.0035 21.987 10.9693 21.8587 10.961 21.7275C10.9527 21.5963 10.9703 21.4647 11.0129 21.3403C11.0555 21.2159 11.1222 21.1011 11.2092 21.0025C11.2963 20.9039 11.4019 20.8234 11.5201 20.7657C11.6382 20.708 11.7666 20.6742 11.8979 20.6662C12.0291 20.6581 12.1607 20.6761 12.285 20.719C12.4093 20.7619 12.5239 20.8289 12.6223 20.9161C12.7207 21.0034 12.8009 21.1092 12.8583 21.2275C13.5509 22.5777 14.6059 23.7082 15.9052 24.4923C17.2044 25.2763 18.6964 25.6829 20.2138 25.6663H26.9169L26.0172 24.7769C25.9227 24.6835 25.8478 24.5722 25.7968 24.4495C25.7458 24.3268 25.7198 24.1952 25.7203 24.0623C25.7208 23.9294 25.7477 23.798 25.7996 23.6757C25.8515 23.5533 25.9272 23.4426 26.0224 23.3499C26.7478 22.6594 27.3264 21.8297 27.7235 20.9104C28.1206 19.9911 28.3281 19.001 28.3336 17.9996C28.3053 16.2233 27.6653 14.5111 26.5216 13.1517C25.3778 11.7923 23.8002 10.869 22.0549 10.5374C21.7963 10.4803 21.5709 10.3231 21.428 10.1002C21.2851 9.87724 21.2364 9.60675 21.2926 9.34797C21.3487 9.0892 21.5052 8.86323 21.7276 8.71959C21.9501 8.57595 22.2204 8.52634 22.4794 8.58163C24.6723 9.00808 26.651 10.1778 28.0818 11.8935C29.5126 13.6091 30.3079 15.7658 30.3336 17.9996C30.3295 20.2106 29.5426 22.3487 28.1122 24.0348L28.4768 24.3954C28.7457 24.6621 28.9294 25.0026 29.0046 25.3738C29.0798 25.745 29.0431 26.1301 28.8992 26.4804C28.7553 26.8307 28.5106 27.1304 28.1962 27.3415C27.8818 27.5526 27.5118 27.6657 27.1331 27.6663Z" fill="#ED5A2F"/>
<path d="M12.666 22.6666H5.08008C4.68453 22.6666 4.29785 22.5493 3.96895 22.3296C3.64005 22.1098 3.38371 21.7975 3.23234 21.432C3.08098 21.0666 3.04139 20.6644 3.11858 20.2765C3.19578 19.8885 3.38629 19.5322 3.66602 19.2525L4.13086 18.7877C2.54198 16.9475 1.66722 14.5977 1.66602 12.1666C1.73698 9.31705 2.9346 6.61185 4.99646 4.64371C7.05832 2.67557 9.81627 1.605 12.666 1.66658C15.5158 1.605 18.2737 2.67557 20.3356 4.64371C22.3974 6.61185 23.5951 9.31705 23.666 12.1666C23.5951 15.0161 22.3974 17.7213 20.3356 19.6894C18.2737 21.6576 15.5158 22.7282 12.666 22.6666ZM12.666 3.66658C10.3466 3.6048 8.09725 4.46459 6.41042 6.05771C4.72359 7.65083 3.73676 9.84744 3.66602 12.1666C3.66961 13.2755 3.89769 14.3722 4.33651 15.3907C4.77534 16.4091 5.41581 17.3281 6.21935 18.0924C6.31447 18.1847 6.39028 18.295 6.44236 18.4169C6.49445 18.5388 6.52177 18.6699 6.52274 18.8024C6.52371 18.935 6.4983 19.0664 6.44801 19.1891C6.39771 19.3117 6.32352 19.4231 6.22976 19.5168L5.08003 20.6666H12.666C14.9854 20.7284 17.2348 19.8686 18.9216 18.2755C20.6084 16.6823 21.5953 14.4857 21.666 12.1666C21.5953 9.84744 20.6084 7.65083 18.9216 6.05771C17.2348 4.46459 14.9854 3.6048 12.666 3.66658Z" fill="#ED5A2F"/>
</svg>
