<svg width="32" height="32" viewBox="0 0 32 32" fill="none" xmlns="http://www.w3.org/2000/svg">
<mask id="mask0_939_167" style="mask-type:luminance" maskUnits="userSpaceOnUse" x="0" y="0" width="32" height="32">
<path d="M32 0H0V32H32V0Z" fill="white"/>
</mask>
<g mask="url(#mask0_939_167)">
<path d="M16 10C15.0111 10 14.0444 9.70676 13.2222 9.15735C12.3999 8.60794 11.759 7.82705 11.3806 6.91342C11.0022 5.99979 10.9031 4.99446 11.0961 4.02455C11.289 3.05465 11.7652 2.16373 12.4645 1.46447C13.1637 0.765206 14.0546 0.289002 15.0246 0.0960759C15.9945 -0.0968503 16.9998 0.00216642 17.9134 0.380605C18.8271 0.759043 19.6079 1.39991 20.1574 2.22215C20.7068 3.0444 21 4.0111 21 5C20.9984 6.3256 20.4711 7.59644 19.5338 8.53378C18.5964 9.47112 17.3256 9.99841 16 10ZM16 2C15.4067 2 14.8266 2.17595 14.3333 2.50559C13.8399 2.83524 13.4554 3.30377 13.2284 3.85195C13.0013 4.40013 12.9419 5.00333 13.0576 5.58527C13.1734 6.16722 13.4591 6.70177 13.8787 7.12132C14.2982 7.54088 14.8328 7.8266 15.4147 7.94236C15.9967 8.05811 16.5999 7.9987 17.1481 7.77164C17.6962 7.54458 18.1648 7.16006 18.4944 6.66671C18.8241 6.17337 19 5.59335 19 5C18.9992 4.2046 18.6829 3.442 18.1204 2.87956C17.558 2.31712 16.7954 2.0008 16 2Z" fill="#ED5A2F"/>
<path d="M20.166 18H11.833C11.347 17.9995 10.8811 17.8062 10.5375 17.4625C10.1938 17.1189 10.0005 16.653 10 16.167V13.833C10.0019 12.2864 10.6171 10.8037 11.7108 9.71014C12.8046 8.61661 14.2874 8.00159 15.834 8H16.167C17.7134 8.00185 19.196 8.61699 20.2895 9.71049C21.383 10.804 21.9981 12.2866 22 13.833V16.167C21.9995 16.6532 21.806 17.1192 21.4622 17.4629C21.1183 17.8066 20.6522 17.9997 20.166 18ZM12 16H20V13.833C19.9987 12.8167 19.5943 11.8423 18.8755 11.1238C18.1568 10.4052 17.1823 10.0011 16.166 10H15.833C14.8168 10.0013 13.8427 10.4056 13.1241 11.1241C12.4056 11.8427 12.0013 12.8168 12 13.833V16Z" fill="#ED5A2F"/>
<path d="M26 22H6C5.46973 21.9995 4.96133 21.7886 4.58637 21.4136C4.21141 21.0387 4.00053 20.5303 4 20V18C4.00053 17.4697 4.21141 16.9613 4.58637 16.5864C4.96133 16.2114 5.46973 16.0005 6 16H26C26.5303 16.0005 27.0387 16.2114 27.4136 16.5864C27.7886 16.9613 27.9995 17.4697 28 18V20C27.9995 20.5303 27.7886 21.0387 27.4136 21.4136C27.0387 21.7886 26.5303 21.9995 26 22ZM6 18V20H26.002L26 18H6Z" fill="#ED5A2F"/>
<path d="M23.8751 32H8.12514C7.85992 32 7.60557 31.8946 7.41803 31.7071C7.2305 31.5196 7.12514 31.2652 7.12514 31V25.138L6.03714 21.27C5.99546 21.1214 5.98876 20.9651 6.01756 20.8134C6.04637 20.6617 6.1099 20.5188 6.20317 20.3958C6.29645 20.2728 6.41694 20.173 6.55521 20.1044C6.69347 20.0357 6.84576 20 7.00014 20H25.0001C25.1545 20 25.3068 20.0357 25.4451 20.1044C25.5833 20.173 25.7038 20.2728 25.7971 20.3958C25.8904 20.5188 25.9539 20.6617 25.9827 20.8134C26.0115 20.9651 26.0048 21.1214 25.9631 21.27L24.8751 25.138V31C24.8751 31.2652 24.7698 31.5196 24.5822 31.7071C24.3947 31.8946 24.1404 32 23.8751 32ZM9.12514 30H22.8751V25C22.8752 24.9087 22.8877 24.8179 22.9121 24.73L23.6801 22H8.32014L9.08814 24.73C9.11261 24.8179 9.12506 24.9087 9.12514 25V30Z" fill="#ED5A2F"/>
<path d="M20 32.0003H12C11.7348 32.0003 11.4804 31.8949 11.2929 31.7074C11.1054 31.5199 11 31.2655 11 31.0003V25.0003C11 24.7351 11.1054 24.4807 11.2929 24.2932C11.4804 24.1057 11.7348 24.0003 12 24.0003H20C20.2652 24.0003 20.5196 24.1057 20.7071 24.2932C20.8946 24.4807 21 24.7351 21 25.0003V31.0003C21 31.2655 20.8946 31.5199 20.7071 31.7074C20.5196 31.8949 20.2652 32.0003 20 32.0003ZM13 30.0003H19V26.0003H13V30.0003ZM7 18.0003C6.73478 18.0003 6.48043 17.8949 6.29289 17.7074C6.10536 17.5199 6 17.2655 6 17.0003V12.0003C5.99986 11.8452 6.0358 11.6921 6.105 11.5533L7.105 9.5533C7.1637 9.43576 7.24498 9.33094 7.34419 9.24482C7.4434 9.1587 7.5586 9.09296 7.68322 9.05136C7.80783 9.00976 7.93942 8.99311 8.07047 9.00237C8.20152 9.01162 8.32947 9.0466 8.447 9.1053C8.56453 9.164 8.66935 9.24527 8.75548 9.34448C8.8416 9.44369 8.90734 9.5589 8.94894 9.68351C8.99054 9.80813 9.00719 9.93972 8.99793 10.0708C8.98868 10.2018 8.9537 10.3298 8.895 10.4473L8 12.2373V17.0003C8 17.2655 7.89464 17.5199 7.70711 17.7074C7.51957 17.8949 7.26522 18.0003 7 18.0003ZM25 18.0003C24.7348 18.0003 24.4804 17.8949 24.2929 17.7074C24.1054 17.5199 24 17.2655 24 17.0003V12.2363L23.106 10.4473C23.0424 10.3294 23.0032 10.2 22.9906 10.0666C22.978 9.93332 22.9923 9.79882 23.0327 9.67113C23.0731 9.54344 23.1387 9.42516 23.2257 9.32331C23.3126 9.22146 23.4192 9.13812 23.539 9.07823C23.6588 9.01834 23.7893 8.98312 23.923 8.97465C24.0567 8.96619 24.1906 8.98466 24.317 9.02897C24.4434 9.07328 24.5596 9.14252 24.6587 9.23259C24.7578 9.32266 24.8378 9.43172 24.894 9.5533L25.894 11.5533C25.9635 11.6921 25.9998 11.8451 26 12.0003V17.0003C26 17.2655 25.8946 17.5199 25.7071 17.7074C25.5196 17.8949 25.2652 18.0003 25 18.0003Z" fill="#ED5A2F"/>
</g>
</svg>
