<svg width="35" height="35" viewBox="0 0 35 35" fill="none" xmlns="http://www.w3.org/2000/svg">
<g filter="url(#filter0_d_772_369)">
<path d="M28.7588 30.8096C25.7236 33.373 21.7862 35 17.5 35C11.1221 35 5.52337 31.4863 2.48828 26.3594L3.62455 21.1215L8.66113 20.1865C9.83008 23.9599 13.3574 26.7285 17.5 26.7285C19.5097 26.7285 21.376 26.0928 22.9141 24.9648L27.7539 25.7031L28.7588 30.8096Z" fill="#59C36A"/>
<path d="M28.7588 30.8096L27.7539 25.7031L22.9141 24.9648C21.376 26.0928 19.5097 26.7285 17.5 26.7285V35C21.7862 35 25.7236 33.373 28.7588 30.8096Z" fill="#00A66C"/>
<path d="M8.27148 17.5C8.27148 18.4433 8.41504 19.3456 8.66113 20.1865L2.48828 26.3594C0.950195 23.7754 0 20.7402 0 17.5C0 14.2597 0.950195 11.2246 2.48828 8.64062L7.44249 9.49327L8.66113 14.8135C8.41504 15.6542 8.27148 16.5566 8.27148 17.5Z" fill="#FFDA2D"/>
<path d="M35 17.5C35 22.832 32.5323 27.6104 28.7588 30.8096L22.9141 24.9648C24.1034 24.1034 25.1084 22.955 25.7646 21.6016H17.5C16.9257 21.6016 16.4746 21.1503 16.4746 20.5762V14.4238C16.4746 13.8495 16.9257 13.3984 17.5 13.3984H33.6875C34.1797 13.3984 34.6104 13.747 34.6924 14.2392C34.8975 15.3057 35 16.413 35 17.5Z" fill="#4086F4"/>
<path d="M25.7647 21.6016C25.1085 22.955 24.1034 24.1034 22.9141 24.9648L28.7588 30.8096C32.5323 27.6104 35 22.832 35 17.5C35 16.413 34.8975 15.3057 34.6923 14.2392C34.6104 13.747 34.1796 13.3984 33.6874 13.3984H17.5V21.6016H25.7647Z" fill="#4175DF"/>
<path d="M29.0459 4.88763C29.0664 5.17474 28.9434 5.44141 28.7588 5.64642L24.3701 10.0146C24.0216 10.3837 23.4473 10.4247 23.0372 10.1171C21.4169 8.90723 19.5097 8.27148 17.5 8.27148C13.3574 8.27148 9.83008 11.04 8.66113 14.8135L2.48828 8.64062C5.52337 3.51367 11.1221 0 17.5 0C21.5811 0 25.5596 1.50391 28.6768 4.12884C28.9023 4.31348 29.0254 4.60052 29.0459 4.88763Z" fill="#FF641A"/>
<path d="M23.0371 10.1171C23.4473 10.4248 24.0214 10.3837 24.37 10.0146L28.7587 5.64642C28.9434 5.44141 29.0664 5.1748 29.0458 4.88763C29.0253 4.60045 28.9023 4.31348 28.6767 4.12884C25.5596 1.50391 21.5811 0 17.5 0V8.27148C19.5097 8.27148 21.4169 8.90723 23.0371 10.1171Z" fill="#F03800"/>
</g>
<defs>
<filter id="filter0_d_772_369" x="-4" y="0" width="43" height="43" filterUnits="userSpaceOnUse" color-interpolation-filters="sRGB">
<feFlood flood-opacity="0" result="BackgroundImageFix"/>
<feColorMatrix in="SourceAlpha" type="matrix" values="0 0 0 0 0 0 0 0 0 0 0 0 0 0 0 0 0 0 127 0" result="hardAlpha"/>
<feOffset dy="4"/>
<feGaussianBlur stdDeviation="2"/>
<feComposite in2="hardAlpha" operator="out"/>
<feColorMatrix type="matrix" values="0 0 0 0 0 0 0 0 0 0 0 0 0 0 0 0 0 0 0.25 0"/>
<feBlend mode="normal" in2="BackgroundImageFix" result="effect1_dropShadow_772_369"/>
<feBlend mode="normal" in="SourceGraphic" in2="effect1_dropShadow_772_369" result="shape"/>
</filter>
</defs>
</svg>
