<svg width="22" height="15" viewBox="0 0 22 15" fill="none" xmlns="http://www.w3.org/2000/svg">
<g clip-path="url(#clip0_772_341)">
<path fill-rule="evenodd" clip-rule="evenodd" d="M7.62806 3.9233C8.85131 2.50018 9.09932 0.993023 8.96588 0.0589004L9.38843 -0.00146484C9.53955 1.05636 9.254 2.68652 7.95176 4.20154C6.89546 5.43042 5.179 6.57424 2.50417 7.28511H22V7.71196H2.50417C5.179 8.42282 6.89546 9.56665 7.95176 10.7955C9.254 12.3105 9.53955 13.9407 9.38843 14.9985L8.96588 14.9381C9.09932 14.004 8.85131 12.4968 7.62806 11.0737C6.4084 9.65483 4.20583 8.30524 0.410304 7.71196H0V7.28511H0.410304C4.20583 6.69182 6.4084 5.34224 7.62806 3.9233Z" fill="white"/>
</g>
<defs>
<clipPath id="clip0_772_341">
<rect width="22" height="15" fill="white"/>
</clipPath>
</defs>
</svg>
