<svg width="15" height="14" viewBox="0 0 15 14" fill="none" xmlns="http://www.w3.org/2000/svg">
<path d="M13.7891 0.0859373C13.9531 0.203125 14.0313 0.390625 14 0.585937L12 12.5859C11.9766 12.7344 11.8828 12.8594 11.75 12.9375C11.6797 12.9766 11.5938 13 11.5078 13C11.4453 13 11.3828 12.9844 11.3203 12.9609L7.78125 11.5156L5.89063 13.8203C5.79688 13.9375 5.65625 14 5.50781 14C5.45313 14 5.39063 13.9922 5.33594 13.9688C5.14063 13.8984 5.00781 13.7109 5.00781 13.5V10.7734L11.7578 2.5L3.40625 9.72656L0.320313 8.46094C0.140625 8.39062 0.0234375 8.22656 0.0078125 8.03125C-3.49246e-10 7.84375 0.09375 7.66406 0.257813 7.57031L13.2578 0.0703119C13.3359 0.0234367 13.4219 -9.53674e-07 13.5078 -9.53674e-07C13.6094 -9.53674e-07 13.7109 0.0312498 13.7891 0.0859373Z" fill="white"/>
</svg>
