<svg width="54" height="44" viewBox="0 0 54 44" fill="none" xmlns="http://www.w3.org/2000/svg">
<path d="M21.8501 4.85558C23.1902 4.85558 24.2779 3.76793 24.2779 2.42779C24.2779 1.08765 23.1902 0 21.8501 0C9.18918 0 0 9.18918 0 21.8501V41.2724C0 42.6125 1.08765 43.7002 2.42779 43.7002H21.8501C23.1902 43.7002 24.2779 42.6125 24.2779 41.2724V21.8501C24.2779 20.51 23.1902 19.4223 21.8501 19.4223H5.01581C6.05855 10.7369 12.6779 4.85558 21.8501 4.85558Z" fill="white" fill-opacity="0.15"/>
<path d="M50.9834 19.4223H34.1491C35.1918 10.7369 41.81 4.85558 50.9834 4.85558C52.3235 4.85558 53.4112 3.76793 53.4112 2.42779C53.4112 1.08765 52.3235 0 50.9834 0C38.3225 0 29.1333 9.18918 29.1333 21.8501V41.2724C29.1333 42.6125 30.221 43.7002 31.5611 43.7002H50.9834C52.3235 43.7002 53.4112 42.6125 53.4112 41.2724V21.8501C53.4112 20.51 52.3235 19.4223 50.9834 19.4223Z" fill="white" fill-opacity="0.15"/>
</svg>
