<svg width="60" height="42" viewBox="0 0 60 42" fill="none" xmlns="http://www.w3.org/2000/svg">
<g opacity="0.5">
<path d="M13.1936 0.000929138C5.91814 0.000929138 0 5.91907 0 13.1945C0 20.2134 5.50817 25.9697 12.4294 26.3676C12.5484 27.6617 12.4582 31.1832 9.0836 36.0825C8.96047 36.2615 8.90393 36.478 8.9238 36.6943C8.94367 36.9107 9.03869 37.1132 9.19237 37.2668C10.5729 38.6474 11.4263 39.5166 12.0241 40.1255C12.805 40.9203 13.162 41.2838 13.6844 41.758C13.8527 41.9114 14.0715 41.9976 14.2992 42C14.5269 42.0023 14.7476 41.9208 14.919 41.771C20.799 36.6551 27.3307 26.0822 26.3862 13.1276C25.8321 5.52118 20.284 0.000929138 13.1945 0.000929138H13.1936ZM14.3184 39.7992C14.0647 39.55 13.7755 39.2553 13.3498 38.8231C12.5852 38.0429 11.8173 37.2661 11.0461 36.4924C15.1412 30.181 14.3677 25.6871 14.0293 25.0419C13.9485 24.8897 13.8283 24.762 13.6813 24.6721C13.5343 24.5821 13.3659 24.5333 13.1936 24.5306C6.94447 24.5306 1.8593 19.4455 1.8593 13.1945C1.8593 6.94448 6.94447 1.86023 13.1936 1.86023C19.2828 1.86023 24.05 6.65536 24.5325 13.2614C25.5942 27.8328 16.9354 37.2929 14.3184 39.7992ZM59.4036 13.1276C58.8486 5.52304 53.2995 0 46.211 0C38.9355 0 33.0165 5.91907 33.0165 13.1945C33.0165 20.2134 38.5246 25.9697 45.4459 26.3676C45.5667 27.6598 45.4756 31.1804 42.1001 36.0825C41.9768 36.2614 41.9201 36.4778 41.9398 36.6941C41.9595 36.9105 42.0544 37.1131 42.2079 37.2668C43.5838 38.6427 44.4353 39.5101 45.0322 40.1171C45.8177 40.9176 46.1756 41.2829 46.7009 41.7589C46.8698 41.9111 47.0887 41.9963 47.3161 41.9984C47.5435 42.0004 47.7638 41.9192 47.9355 41.77C53.8164 36.6533 60.3481 26.0813 59.4036 13.1276ZM47.3349 39.7992C47.007 39.4733 46.6816 39.1448 46.3588 38.8138C45.8419 38.2876 45.1344 37.5671 44.0626 36.4924C48.1577 30.1801 47.3851 25.6871 47.0467 25.0419C46.9656 24.89 46.8453 24.7625 46.6984 24.6726C46.5515 24.5827 46.3832 24.5337 46.211 24.5306C39.96 24.5306 34.8758 19.4455 34.8758 13.1945C34.8758 6.94448 39.9609 1.86023 46.211 1.86023C52.2983 1.86023 57.0674 6.65535 57.5499 13.2624C58.6116 27.8309 49.951 37.2938 47.3349 39.7992Z" fill="white"/>
</g>
</svg>
