<svg width="30" height="30" viewBox="0 0 30 30" fill="none" xmlns="http://www.w3.org/2000/svg">
<path d="M16.8767 9.375V4.6875C16.8762 4.49848 16.8186 4.31403 16.7114 4.15833C16.6042 4.00264 16.4525 3.88298 16.2761 3.81506C16.0997 3.74714 15.9069 3.73412 15.7229 3.77772C15.539 3.82132 15.3726 3.9195 15.2454 4.05938L6.80794 13.4344C6.65247 13.6066 6.56641 13.8305 6.56641 14.0625C6.56641 14.2946 6.65247 14.5184 6.80794 14.6906L15.2454 24.0656C15.3726 24.2055 15.539 24.3037 15.7229 24.3473C15.9069 24.3909 16.0997 24.3779 16.2761 24.3099C16.4525 24.242 16.6042 24.1224 16.7114 23.9667C16.8186 23.811 16.8762 23.6265 16.8767 23.4375V18.75C22.3704 18.9375 23.5142 20.8875 25.6892 24.5906C25.9048 24.975 26.1392 25.3688 26.3829 25.7719C26.4636 25.9153 26.5805 26.035 26.722 26.1189C26.8635 26.2029 27.0247 26.2481 27.1892 26.25C27.273 26.2637 27.3585 26.2637 27.4423 26.25C27.6451 26.1933 27.8229 26.07 27.947 25.8999C28.0712 25.7298 28.1345 25.5229 28.1267 25.3125C28.1267 19.8844 28.1267 9.91875 16.8767 9.375ZM15.9392 16.875C15.6906 16.875 15.4521 16.9738 15.2763 17.1496C15.1005 17.3254 15.0017 17.5639 15.0017 17.8125V20.9906L8.76732 14.0625L15.0017 7.13438V10.3125C15.0017 10.5611 15.1005 10.7996 15.2763 10.9754C15.4521 11.1512 15.6906 11.25 15.9392 11.25C24.2361 11.25 25.8579 16.7344 26.1767 21.7875C24.2454 18.75 22.1267 16.875 15.9392 16.875Z" fill="#666666"/>
<path d="M4.07982 14.0626L11.9454 5.31572C12.0367 5.22624 12.1086 5.11905 12.1569 5.00073C12.2052 4.88242 12.2288 4.75549 12.2262 4.62773C12.2237 4.49997 12.195 4.37408 12.142 4.2578C12.0891 4.14151 12.0129 4.03728 11.9181 3.95152C11.8234 3.86575 11.7122 3.80026 11.5912 3.75905C11.4702 3.71785 11.3421 3.70181 11.2147 3.71192C11.0874 3.72203 10.9634 3.75808 10.8504 3.81785C10.7375 3.87761 10.638 3.95984 10.5579 4.05947L2.12044 13.4345C1.96497 13.6067 1.87891 13.8305 1.87891 14.0626C1.87891 14.2947 1.96497 14.5185 2.12044 14.6907L10.5579 24.0657C10.6456 24.1628 10.7526 24.2405 10.8721 24.2938C10.9916 24.3471 11.1209 24.3748 11.2517 24.3751C11.484 24.3745 11.7079 24.2876 11.8798 24.1313C12.0634 23.9645 12.1734 23.7317 12.1857 23.484C12.198 23.2362 12.1116 22.9937 11.9454 22.8095L4.07982 14.0626Z" fill="#666666"/>
</svg>
