<svg width="22" height="15" viewBox="0 0 22 15" fill="none" xmlns="http://www.w3.org/2000/svg">
<g clip-path="url(#clip0_772_339)">
<path fill-rule="evenodd" clip-rule="evenodd" d="M14.3719 3.9233C13.1487 2.50018 12.9007 0.993023 13.0341 0.0589004L12.6116 -0.00146484C12.4605 1.05636 12.746 2.68652 14.0482 4.20154C15.1045 5.43042 16.821 6.57424 19.4958 7.28511H0V7.71196H19.4958C16.821 8.42282 15.1045 9.56665 14.0482 10.7955C12.746 12.3105 12.4605 13.9407 12.6116 14.9985L13.0341 14.9381C12.9007 14.004 13.1487 12.4968 14.3719 11.0737C15.5916 9.65483 17.7942 8.30524 21.5897 7.71196H22V7.28511H21.5897C17.7942 6.69182 15.5916 5.34224 14.3719 3.9233Z" fill="white"/>
</g>
<defs>
<clipPath id="clip0_772_339">
<rect width="22" height="15" fill="white"/>
</clipPath>
</defs>
</svg>
