<svg width="15" height="11" viewBox="0 0 15 11" fill="none" xmlns="http://www.w3.org/2000/svg">
<path d="M3.33326 3.86044C2.86394 3.86044 2.41761 3.95877 2.01262 4.13443C2.57828 2.87346 3.45292 1.80648 4.4709 1.25249C4.79423 1.0765 4.91389 0.671839 4.7379 0.348179C4.5619 0.0248529 4.15724 -0.0948114 3.83358 0.0811848C1.6123 1.28983 0 4.28109 0 7.1937C0 9.03166 1.4953 10.527 3.33326 10.527C5.17122 10.527 6.66652 9.03166 6.66652 7.1937C6.66652 5.35574 5.17155 3.86044 3.33326 3.86044Z" fill="black"/>
<path d="M11.6668 3.86022C11.1978 3.86022 10.7514 3.95855 10.3458 4.13455C10.9114 2.87324 11.7861 1.80627 12.8044 1.25228C13.1277 1.07628 13.2474 0.671624 13.0714 0.347964C12.8957 0.0249713 12.4911 -0.094693 12.1671 0.0809699C9.94579 1.28961 8.3335 4.28088 8.3335 7.19348C8.3335 9.03144 9.8288 10.5267 11.6668 10.5267C13.5047 10.5267 15 9.03144 15 7.19348C15 5.35552 13.5047 3.86022 11.6668 3.86022Z" fill="black"/>
</svg>
